<svg xmlns="http://www.w3.org/2000/svg" viewBox="0 0 197.78 197.78"><defs><style>.cls-1,.cls-4{fill:none;stroke:#3376d1;stroke-miterlimit:10;}.cls-1{stroke-width:0.64px;}.cls-2{fill:#3376d1;}.cls-3{fill:#2b6aaf;}.cls-4{stroke-width:3.45px;}</style></defs><title>Logo Mark-Blue</title><g id="Layer_2" data-name="Layer 2"><g id="Layer_1-2" data-name="Layer 1"><line class="cls-1" x1="99.74" y1="3.44" x2="99.74" y2="196.06"/><line class="cls-1" x1="98.89" y1="3.44" x2="98.89" y2="196.06"/><path class="cls-2" d="M124,110.25a53,53,0,0,1-22,22.32,7.63,7.63,0,0,1-2.49.79,7.76,7.76,0,0,1-2.49-.79,53,53,0,0,1-22-22.32c-1.5-2.39-5-14.44,3.09-23.41s21.41-.49,21.41-.49,13.31-8.47,21.42.49S125.46,107.86,124,110.25Z"/><path class="cls-3" d="M76.7,172.47c-.21.33-.57.06-.86,0A43.67,43.67,0,0,1,70.59,171a6.16,6.16,0,0,0-1.46-.38l-.68-1.18-2.72-5A13.66,13.66,0,0,1,64.42,161a1.39,1.39,0,0,1,1.51-1.83c1.89,0,3.11,1.23,4.27,2.47a17.83,17.83,0,0,1,3,4.46,53.06,53.06,0,0,0,3.23,5.62C76.56,172,76.85,172.23,76.7,172.47Z"/><path class="cls-3" d="M67.78,169.85a40.06,40.06,0,0,1-4.49-2.26c-1.85-1.12-3.71-2.22-5.45-3.51a2.1,2.1,0,0,1-.62-.56,25.86,25.86,0,0,1-2.86-5.71c-.46-1.58.39-2.5,2-2.24a6,6,0,0,1,3.15,1.79,20.48,20.48,0,0,1,3.8,5.11,47.16,47.16,0,0,0,4.18,6.58A.85.85,0,0,1,67.78,169.85Z"/><path class="cls-3" d="M75.82,163.14A4.5,4.5,0,0,1,78,164.33a17,17,0,0,1,4,5.52c.6,1.14,1.2,2.27,1.86,3.37.33.57.12.77-.45.68-1.74-.27-3.49-.47-5.19-.91a1.18,1.18,0,0,1-.75-.53,46.75,46.75,0,0,1-3.35-6.53,5.46,5.46,0,0,1-.21-.72C73.56,163.77,74.07,163.13,75.82,163.14Z"/><path class="cls-2" d="M150.25,182.19h0a111.06,111.06,0,0,1-34.1,10.91l0,0-.55.1c-1.13.19-2.27.34-3.42.46a86.39,86.39,0,0,1-12.23.68,61.12,61.12,0,0,1-15.77-2.65,63.57,63.57,0,0,1-17-8.11,53.68,53.68,0,0,1-7.83-6.35c-2.47-2.43-5.18-4.59-7.6-7.07a50.83,50.83,0,0,1-6.46-7.59c-.56-.85-1-1.83-.37-2.73a3,3,0,0,1,3-1A7,7,0,0,1,50.53,160c2.67,1.67,5,3.78,7.55,5.66a50.89,50.89,0,0,0,22,9.54c3.58.61,7.12,1.33,10.77,1.08A9.87,9.87,0,0,0,95.56,175c2.06-1.27,2.38-3.09.91-5-1.75-2.31-4.1-4-6.29-5.82-2.47-2.07-4.41-4.51-5-7.79a8,8,0,0,1,.81-5.67c1.25-2,3.14-2.12,4.39-.08A26.4,26.4,0,0,0,101,160.1a58.72,58.72,0,0,1,14.3,10.06,35.27,35.27,0,0,1,3.27,3.75,20.08,20.08,0,0,0,4.79,1.71c4.28,1.06,11.34,1.8,20.94-.5,0,0,1.24-.16,1.6.45Z"/><path class="cls-3" d="M25.43,76.42c-.34-.2-.07-.56,0-.85a44,44,0,0,1,1.47-5.28,5.77,5.77,0,0,0,.37-1.47l1.18-.68,5-2.77A13.59,13.59,0,0,1,36.83,64a1.4,1.4,0,0,1,1.85,1.5c0,1.9-1.21,3.13-2.45,4.3a18,18,0,0,1-4.44,3,50.64,50.64,0,0,0-5.61,3.27C26,76.28,25.67,76.58,25.43,76.42Z"/><path class="cls-3" d="M28,67.47A37.23,37.23,0,0,1,30.22,63c1.1-1.87,2.19-3.74,3.47-5.49a2.28,2.28,0,0,1,.56-.63A26.19,26.19,0,0,1,40,53.92c1.58-.47,2.51.37,2.25,2a5.81,5.81,0,0,1-1.76,3.16A20.57,20.57,0,0,1,35.35,63a46.87,46.87,0,0,0-6.57,4.24A.84.84,0,0,1,28,67.47Z"/><path class="cls-3" d="M34.77,75.48a4.46,4.46,0,0,1-1.18,2.15,16.94,16.94,0,0,1-5.49,4.08c-1.14.61-2.27,1.22-3.37,1.89-.56.34-.77.13-.68-.45.26-1.74.44-3.49.87-5.21a1.1,1.1,0,0,1,.53-.74A45.34,45.34,0,0,1,32,73.78a4.56,4.56,0,0,1,.72-.21C34.13,73.21,34.77,73.72,34.77,75.48Z"/><path class="cls-2" d="M16.26,150.22a0,0,0,0,1,0,0A111.13,111.13,0,0,1,5,116.11l0,0c0-.18-.08-.37-.11-.55-.2-1.13-.35-2.27-.48-3.43a86.7,86.7,0,0,1-.79-12.25A61.57,61.57,0,0,1,6.25,84a63.5,63.5,0,0,1,8-17.06,53.4,53.4,0,0,1,6.3-7.9c2.42-2.5,4.57-5.23,7-7.68a52.27,52.27,0,0,1,7.57-6.53c.84-.56,1.82-1.05,2.73-.39a3,3,0,0,1,1,3,6.73,6.73,0,0,1-1.19,2.66c-1.65,2.69-3.75,5.06-5.61,7.61a50.94,50.94,0,0,0-9.39,22.16c-.58,3.59-1.28,7.15-1,10.8A9.91,9.91,0,0,0,23,95.35c1.29,2.05,3.12,2.37,5,.88,2.3-1.78,3.95-4.15,5.78-6.36,2.06-2.48,4.49-4.45,7.78-5a7.94,7.94,0,0,1,5.68.76c2,1.24,2.15,3.13.11,4.4A26.35,26.35,0,0,0,38,100.68a58.69,58.69,0,0,1-10,14.4,33.52,33.52,0,0,1-3.73,3.32,19.92,19.92,0,0,0-1.68,4.81c-1,4.29-1.72,11.38.67,21,0,0,.17,1.25-.44,1.61Z"/><path class="cls-3" d="M120.5,25c.2-.34.57-.08.86,0a42.77,42.77,0,0,1,5.3,1.43,6.32,6.32,0,0,0,1.47.36l.7,1.17q1.39,2.49,2.81,5A13.67,13.67,0,0,1,133,36.36a1.39,1.39,0,0,1-1.49,1.86c-1.9,0-3.14-1.19-4.33-2.41a18.11,18.11,0,0,1-3.06-4.44,53.48,53.48,0,0,0-3.33-5.59C120.65,25.55,120.35,25.27,120.5,25Z"/><path class="cls-3" d="M129.49,27.52a39.23,39.23,0,0,1,4.56,2.2c1.87,1.09,3.76,2.17,5.52,3.44a2.33,2.33,0,0,1,.64.56,25.86,25.86,0,0,1,3,5.69c.48,1.58-.36,2.51-2,2.27A5.86,5.86,0,0,1,138,39.94a20.72,20.72,0,0,1-3.9-5.07,47.31,47.31,0,0,0-4.29-6.55A.87.87,0,0,1,129.49,27.52Z"/><path class="cls-3" d="M121.53,34.38a4.42,4.42,0,0,1-2.17-1.16,16.77,16.77,0,0,1-4.13-5.47c-.62-1.14-1.25-2.27-1.93-3.37-.34-.56-.13-.76.45-.68a51.51,51.51,0,0,1,5.22.83,1.15,1.15,0,0,1,.76.52,47.11,47.11,0,0,1,3.47,6.5,6.14,6.14,0,0,1,.22.73C123.79,33.72,123.28,34.37,121.53,34.38Z"/><path class="cls-2" d="M46.47,16.41s0,0,0,0A111.44,111.44,0,0,1,80.57,4.91l0,0,.56-.11c1.13-.21,2.27-.37,3.43-.51a85.62,85.62,0,0,1,12.27-.88,61.52,61.52,0,0,1,15.89,2.42,63.45,63.45,0,0,1,17.16,7.88,53.59,53.59,0,0,1,8,6.26c2.52,2.4,5.27,4.53,7.75,7a52.44,52.44,0,0,1,6.6,7.53c.57.84,1.07,1.82.42,2.74a3,3,0,0,1-3,1A7,7,0,0,1,147,37.11c-2.71-1.64-5.1-3.72-7.67-5.57A51,51,0,0,0,117,22.3c-3.6-.56-7.18-1.23-10.84-.91a9.83,9.83,0,0,0-4.68,1.35c-2.05,1.31-2.34,3.14-.84,5.05,1.8,2.29,4.19,3.92,6.42,5.74,2.5,2,4.49,4.47,5.08,7.76a7.93,7.93,0,0,1-.72,5.7c-1.22,2.06-3.12,2.18-4.4.15a26.4,26.4,0,0,0-10.76-9.3A59.11,59.11,0,0,1,81.77,28a35.84,35.84,0,0,1-3.35-3.72,19.77,19.77,0,0,0-4.84-1.64c-4.3-1-11.41-1.63-21,.83,0,0-1.25.18-1.61-.42Z"/><path class="cls-3" d="M173.12,119.67c.33.2.07.57,0,.86a42.44,42.44,0,0,1-1.39,5.32,6.37,6.37,0,0,0-.35,1.48l-1.17.71-5,2.86a13.85,13.85,0,0,1-3.41,1.4,1.4,1.4,0,0,1-1.88-1.48c0-1.91,1.17-3.16,2.39-4.36a18.14,18.14,0,0,1,4.41-3.11,51.17,51.17,0,0,0,5.59-3.37C172.6,119.82,172.87,119.52,173.12,119.67Z"/><path class="cls-3" d="M170.69,128.7a40.3,40.3,0,0,1-2.17,4.58c-1.08,1.89-2.15,3.79-3.41,5.57a2.14,2.14,0,0,1-.55.64,26.2,26.2,0,0,1-5.68,3c-1.58.5-2.52-.33-2.29-2a5.83,5.83,0,0,1,1.72-3.2,20.39,20.39,0,0,1,5.05-4,46.68,46.68,0,0,0,6.53-4.36A.86.86,0,0,1,170.69,128.7Z"/><path class="cls-3" d="M163.75,120.77a4.38,4.38,0,0,1,1.15-2.18,17,17,0,0,1,5.45-4.19c1.13-.63,2.26-1.26,3.36-2,.55-.35.76-.14.68.44a52,52,0,0,1-.79,5.25,1.17,1.17,0,0,1-.52.76,46.68,46.68,0,0,1-6.48,3.53c-.24.09-.48.16-.73.23C164.43,123,163.77,122.53,163.75,120.77Z"/><path class="cls-2" d="M181.17,45.4a0,0,0,0,1,0,0A111.7,111.7,0,0,1,193,79.49l0,0c0,.19.08.38.11.56.22,1.13.4,2.28.54,3.44a87.39,87.39,0,0,1,1,12.29,61.83,61.83,0,0,1-2.3,15.94A63.59,63.59,0,0,1,184.49,129a53.85,53.85,0,0,1-6.21,8c-2.38,2.55-4.5,5.32-6.93,7.82a52.76,52.76,0,0,1-7.49,6.68c-.84.58-1.82,1.08-2.75.44a3,3,0,0,1-1.05-3,7.08,7.08,0,0,1,1.16-2.69c1.62-2.72,3.68-5.14,5.52-7.73a51.35,51.35,0,0,0,9.09-22.4c.52-3.62,1.16-7.2.82-10.87a10,10,0,0,0-1.39-4.68c-1.33-2-3.17-2.33-5.07-.8-2.28,1.82-3.9,4.22-5.7,6.47-2,2.53-4.44,4.54-7.74,5.16a8,8,0,0,1-5.72-.68c-2.07-1.21-2.21-3.11-.18-4.41a26.52,26.52,0,0,0,9.24-10.86,58.78,58.78,0,0,1,9.8-14.62,34.8,34.8,0,0,1,3.69-3.39,19.84,19.84,0,0,0,1.61-4.86c1-4.33,1.55-11.46-1-21.07,0,0-.2-1.25.41-1.61Z"/><circle class="cls-3" cx="99.74" cy="74.1" r="7.39"/><circle class="cls-4" cx="98.89" cy="98.89" r="97.17"/><circle class="cls-1" cx="99.46" cy="98.84" r="50.24"/><circle class="cls-1" cx="98.97" cy="98.89" r="46.03"/></g></g></svg>